<svg width="48" height="48" viewBox="0 0 48 48" fill="none" xmlns="http://www.w3.org/2000/svg">
<rect width="48" height="48" rx="6" fill="white"/>
<mask id="path-2-inside-1_590_1541" fill="white">
<path fill-rule="evenodd" clip-rule="evenodd" d="M36.9952 18.6363L10.0048 18.6363C10.0016 18.7722 10 18.9085 10 19.0453C10 27.4049 16.0442 34.1816 23.5 34.1816C30.9558 34.1816 37 27.4049 37 19.0453C37 18.9085 36.9984 18.7722 36.9952 18.6363Z"/>
</mask>
<path fill-rule="evenodd" clip-rule="evenodd" d="M36.9952 18.6363L10.0048 18.6363C10.0016 18.7722 10 18.9085 10 19.0453C10 27.4049 16.0442 34.1816 23.5 34.1816C30.9558 34.1816 37 27.4049 37 19.0453C37 18.9085 36.9984 18.7722 36.9952 18.6363Z" fill="white"/>
<path d="M36.9952 18.6363L36.9952 17.6363H37.9718L37.9949 18.6126L36.9952 18.6363ZM10.0048 18.6363L9.00511 18.6126L9.02821 17.6363H10.0048L10.0048 18.6363ZM36.9952 19.6363L10.0048 19.6363L10.0048 17.6363L36.9952 17.6363L36.9952 19.6363ZM11.0046 18.6599C11.0015 18.788 11 18.9164 11 19.0453H9C9 18.9007 9.00171 18.7564 9.00511 18.6126L11.0046 18.6599ZM11 19.0453C11 26.9632 16.7009 33.1816 23.5 33.1816L23.5 35.1816C15.3874 35.1816 9 27.8465 9 19.0453H11ZM23.5 33.1816C30.2991 33.1816 36 26.9632 36 19.0453H38C38 27.8465 31.6126 35.1816 23.5 35.1816L23.5 33.1816ZM36 19.0453C36 18.9164 35.9985 18.788 35.9954 18.6599L37.9949 18.6126C37.9983 18.7564 38 18.9007 38 19.0453H36Z" fill="#FFADD2" mask="url(#path-2-inside-1_590_1541)"/>
<path fill-rule="evenodd" clip-rule="evenodd" d="M36.9952 24.3636L10.0048 24.3636C10.0016 24.4995 10 24.6359 10 24.7727C10 33.1323 16.0442 39.9091 23.5 39.9091C30.9558 39.9091 37 33.1323 37 24.7727C37 24.6359 36.9984 24.4995 36.9952 24.3636Z" fill="#FFADD2"/>
<path d="M37 8V8C37 10.7112 34.8021 12.9091 32.0909 12.9091L14.9091 12.9091C12.1979 12.9091 10 10.7112 10 8V8L37 8Z" fill="#FFADD2"/>
<rect x="26.3633" y="8" width="10.6363" height="4.90909" transform="rotate(90 26.3633 8)" fill="#FFADD2"/>
</svg>
